Title                            : Transformers: Dark of the Moon
Year                             : 2011
Genre                            : Action | Adventure | Sci-Fi
iMDB URL                         : http://www.imdb.com/title/tt1399103/

Complete name                    : Transformers.Dark.of.the.Moon.2011.BRRIP.1080P.H264-ZEKTORM.mp4
Format                           : MPEG-4
Format profile                   : Base Media
Codec ID                         : isom
File size                        : 6.15 GiB
Duration                         : 2h 34mn
Overall bit rate                 : 5702 Kbps
Subtitles                        : English (Format: srt)

Video
ID                               : 1
Format                           : AVC
Format/Info                      : Advanced Video Codec
Format profile                   : High@L4.0
Format settings, CABAC           : Yes
Format settings, ReFrames        : 5 frames
Codec ID                         : avc1
Codec ID/Info                    : Advanced Video Coding
Duration                         : 2h 34mn
Bit rate mode                    : Variable
Bit rate                         : 5252 Kbps
Width                            : 1920 pixels
Height                           : 800 pixels
Display aspect ratio             : 2.400
Frame rate mode                  : Constant
Frame rate                       : 23.976 fps
Resolution                       : 24 bits
Colorimetry                      : 4:2:0
Scan type                        : Progressive
Bits/(Pixel*Frame)               : 0.143
Stream size                      : 5.66 GiB (92%)
Title                            : Video
Writing library                  : x264

Audio
ID                               : 2
Format                           : AAC
Format/Info                      : Advanced Audio Codec
Format version                   : Version 4
Format profile                   : LC
Format settings, SBR             : No
Codec ID                         : 40
Duration                         : 2h 34mn
Bit rate mode                    : Variable
Bit rate                         : 446 Kbps
Maximum bit rate                 : 540 Kbps
Channel(s)                       : 6 channels
Channel positions                : Front: L C R, Rear: L R, LFE
Sampling rate                    : 48.0 KHz
Resolution                       : 16 bits
Stream size                      : 492 MiB (8%)
Language                         : English


Screenshots:

[img]http://img43.imageshack.us/img43/7748/snapt1.png[/img]

[img]http://img36.imageshack.us/img36/9537/snapt2.png[/img]

[img]http://img38.imageshack.us/img38/2377/snapt3.png[/img]

[img]http://img843.imageshack.us/img843/586/snapt4.png[/img]
